<svg xmlns="http://www.w3.org/2000/svg" viewBox="0 0 393.5 303.55"><defs><style>.cls-1{fill:#9bd4da;}.cls-2{fill:#c3e9e8;}.cls-3{fill:#d6d7d7;}.cls-4{fill:#f5b70e;}.cls-5{fill:#fefefe;}.cls-6{fill:#3f3f3f;}</style></defs><title>Asset 1</title><g id="Layer_2" data-name="Layer 2"><g id="Layer_1-2" data-name="Layer 1"><path class="cls-1" d="M363.09,110.56c-2.35,7.6-1.12,15.52-1.93,23.27-1.82,17.19-6.6,33.41-12.94,49.38a195.14,195.14,0,0,1-88.47,99,172.72,172.72,0,0,1-63.35,19.72c-42.89,4.63-84.71.18-123.54-20.21C38,263.39,13.35,236,.5,198.39c-.75-2.18-1.06-3.7,2.13-4.11,9.63-1.22,18.5-4.9,27.19-9a8.56,8.56,0,0,1,5,1.88,341.63,341.63,0,0,0,33.8,20.57c24.69,12.93,50.28,23.2,78.1,27,11.69,1.61,23.37,2.42,35.15.58,26-4,46.35-22.61,50.24-49,3.15-21.46-4.09-38.85-21.17-51.84-13.11-10-28.83-12.84-44.79-14-7.75-.57-15.57.33-23.35.65-10.66.43-21,2.25-31.5,3.81-5.72.86-11.33,4.23-17.38,1.48.47-.15,1.14-.16,1.37-.48,5.66-7.7,11.32-15.41,16.88-23.18,6.16-8.6,12.52-17,19.18-25.25,2.58-3.19,6.45-5.63,7.64-9.94,7.16-7.41,14.16-15,21.51-22.2C176.91,29.22,195.42,15.94,217.08,8c35-12.86,68.85-10.71,100.47,10.29,13.69,9.09,23.49,21.85,31.76,35.86-.67,3.37,2.21,5.33,3.16,8,4.88,14,8.91,28.2,8.94,43.23C361.42,107.16,360.57,109.47,363.09,110.56ZM334.9,91.36c.18-31.24-25.86-57.49-58.06-57-31.27.49-57.49,25.64-56.52,59.1.9,31.17,25.08,55.34,57.14,55.39C310.77,148.93,334.9,122.88,334.9,91.36Z"/><path class="cls-2" d="M93.9,126.35c6,2.74,11.66-.63,17.38-1.48,10.47-1.57,20.84-3.38,31.5-3.81,7.78-.32,15.6-1.22,23.35-.65,16,1.17,31.68,4,44.79,14,17.08,13,24.33,30.37,21.17,51.84-3.87,26.45-24.19,45-50.19,49-11.79,1.84-23.47,1-35.15-.58-27.82-3.84-53.4-14.1-78.1-27a341.63,341.63,0,0,1-33.8-20.57,8.56,8.56,0,0,0-5-1.88c-5-6.74-12.78-10.45-18.22-16.71-2.27-2.62-5-4.78-7.05-7.68C3,158.6,3,157.79,5.8,156.78c12.89-4.7,25.62-9.83,38.56-14.38,10.45-3.68,21.11-6.75,31.67-10.1,5.32-2.4,12.47.35,16.48-5.85C92.64,126.2,93.43,126.37,93.9,126.35Zm85.16,65.46a21.25,21.25,0,0,1-1.82-1.63,36.24,36.24,0,0,0-18.2-9.65c-6.75-1.53-12.21,3.09-12.18,10.06,0,5.24,3.47,8.43,6.89,11.54C160,207.79,167.75,211,175,215s7.45,4.35,13.73-1.26c7.64-6.83,15.57-13.52,20.3-22.9,3-5.91,2.29-10.91-1.4-14.23s-9.45-3.2-14.81.17c-5.92,3.72-9.23,9.76-13.74,15Z"/><path class="cls-3" d="M93.9,126.35c-.49,0-1.28-.15-1.43.08-4,6.2-11.16,3.44-16.48,5.85-10.92-18.38-21.4-37-29.15-57a183.57,183.57,0,0,1-7.76-26.21c-1.43-6.4-.07-7.37,6.27-6.14C65.18,46.76,85,50.7,104.41,56.33,116,59.7,127.46,63.74,139,67.49c-1.19,4.31-5.06,6.75-7.64,9.94-6.66,8.23-13,16.65-19.18,25.25-5.56,7.77-11.22,15.48-16.88,23.18C95,126.19,94.38,126.2,93.9,126.35Z"/><path class="cls-4" d="M363.09,110.56c-2.52-1.09-1.68-3.4-1.68-5.21,0-15-4.06-29.22-8.94-43.23-.94-2.71-3.83-4.67-3.16-8,7.08,1.08,13.31,4.68,20,6.78,7.21,2.25,14.24,5.09,21.33,7.71,1.93.71,4,1.39,2,4.12C383,85.47,373.74,98.56,363.09,110.56Z"/><path class="cls-5" d="M334.9,91.36c0,31.52-24.14,57.57-57.44,57.51-32.06,0-56.24-24.22-57.14-55.39-1-33.46,25.25-58.61,56.52-59.1C309.06,33.88,335.09,60.12,334.9,91.36Zm-14-12.16a20.29,20.29,0,1,0,0,.26q0-.13,0-.26Z"/><path class="cls-6" d="M320.95,79.2a23.78,23.78,0,1,1-23.82-23.74A23.78,23.78,0,0,1,320.95,79.2Z"/></g></g></svg>